<svg xmlns="http://www.w3.org/2000/svg" xmlns:xlink="http://www.w3.org/1999/xlink" width="1080" zoomAndPan="magnify" viewBox="0 0 810 809.999993" height="1080" preserveAspectRatio="xMidYMid meet" version="1.0"><defs><clipPath id="8f1b5aeea3"><path d="M 0 193.980469 L 810 193.980469 L 810 629.730469 L 0 629.730469 Z M 0 193.980469 " clip-rule="nonzero"/></clipPath><clipPath id="e6401f234e"><path d="M 0.699219 0 L 810 0 L 810 810 L 0.699219 810 Z M 0.699219 0 " clip-rule="nonzero"/></clipPath></defs><rect x="-81" width="972" fill="#ffffff" y="-80.999999" height="971.999992" fill-opacity="1"/><rect x="-81" width="972" fill="#008037" y="-80.999999" height="971.999992" fill-opacity="1"/><g clip-path="url(#8f1b5aeea3)"><path fill="#000000" d="M 847.902344 358.664062 C 862.136719 362.816406 871.542969 363.773438 872.832031 363.878906 L 873.941406 349.894531 C 872.867188 349.789062 764.476562 339.308594 693.605469 197.609375 L 691.65625 193.730469 L 646.613281 193.730469 L 645.347656 199.195312 C 643.953125 205.355469 608.648438 349.847656 406.457031 349.847656 C 204.242188 349.847656 168.953125 205.355469 167.535156 199.195312 L 166.292969 193.730469 L 121.25 193.730469 L 119.300781 197.609375 C 48.417969 339.308594 -59.960938 349.789062 -61.046875 349.894531 L -59.9375 363.878906 C -58.648438 363.773438 -49.242188 362.816406 -35.007812 358.664062 L -35.007812 435.820312 L -61.035156 435.820312 L -61.035156 460.394531 L 129.105469 460.394531 L 129.105469 590.195312 L 116.527344 590.195312 L 116.527344 629.960938 L 172.695312 629.960938 L 172.695312 590.195312 L 158.941406 590.195312 L 158.941406 460.40625 L 653.964844 460.40625 L 653.964844 590.207031 L 640.199219 590.207031 L 640.199219 629.96875 L 696.367188 629.96875 L 696.367188 590.207031 L 683.800781 590.207031 L 683.800781 460.40625 L 873.929688 460.40625 L 873.929688 435.832031 L 847.902344 435.832031 Z M 7.121094 435.832031 L -27.121094 435.832031 L -27.121094 356.199219 C -17.203125 352.835938 -5.582031 348.011719 7.121094 341.109375 Z M 49.25 435.832031 L 15.007812 435.832031 L 15.007812 336.511719 C 25.953125 330.023438 37.460938 321.992188 49.25 312.054688 Z M 91.367188 435.832031 L 57.125 435.832031 L 57.125 305.175781 C 68.550781 294.785156 80.058594 282.417969 91.367188 268.046875 Z M 129.105469 435.832031 L 99.265625 435.832031 L 99.265625 257.859375 C 109.585938 243.636719 119.628906 227.519531 129.105469 209.222656 Z M 175.628906 435.832031 L 158.941406 435.832031 L 158.941406 217.707031 C 162.320312 226.367188 167.648438 238.035156 175.628906 251.027344 Z M 217.769531 435.832031 L 183.527344 435.832031 L 183.527344 263.015625 C 192.328125 275.449219 203.605469 288.570312 217.769531 301.082031 Z M 259.886719 435.832031 L 225.644531 435.832031 L 225.644531 307.730469 C 235.667969 315.785156 247.058594 323.460938 259.886719 330.445312 Z M 302.019531 435.832031 L 267.785156 435.832031 L 267.785156 334.574219 C 278.253906 339.773438 289.632812 344.484375 302.019531 348.535156 Z M 344.148438 435.832031 L 309.90625 435.832031 L 309.90625 350.941406 C 320.601562 354.089844 332.003906 356.757812 344.148438 358.824219 Z M 386.265625 435.832031 L 352.023438 435.832031 L 352.023438 360.066406 C 362.867188 361.640625 374.246094 362.769531 386.265625 363.375 Z M 418.738281 435.832031 L 394.164062 435.832031 L 394.164062 363.648438 C 398.21875 363.773438 402.257812 363.902344 406.457031 363.902344 C 410.648438 363.902344 414.6875 363.765625 418.738281 363.648438 Z M 460.871094 435.832031 L 426.617188 435.832031 L 426.617188 363.375 C 438.636719 362.769531 450.039062 361.640625 460.871094 360.066406 Z M 503 435.832031 L 468.746094 435.832031 L 468.746094 358.835938 C 480.890625 356.761719 492.292969 354.101562 503 350.953125 Z M 545.117188 435.832031 L 510.863281 435.832031 L 510.863281 348.523438 C 523.261719 344.484375 534.640625 339.761719 545.117188 334.5625 Z M 587.261719 435.832031 L 553.003906 435.832031 L 553.003906 330.445312 C 565.835938 323.460938 577.214844 315.785156 587.261719 307.730469 Z M 629.378906 435.832031 L 595.125 435.832031 L 595.125 301.070312 C 609.300781 288.558594 620.566406 275.4375 629.378906 263.003906 Z M 653.964844 435.832031 L 637.253906 435.832031 L 637.253906 251.039062 C 645.234375 238.035156 650.585938 226.378906 653.964844 217.71875 Z M 713.636719 435.832031 L 683.800781 435.832031 L 683.800781 209.222656 C 693.265625 227.519531 703.308594 243.636719 713.636719 257.859375 Z M 755.769531 435.832031 L 721.503906 435.832031 L 721.503906 268.046875 C 732.835938 282.429688 744.332031 294.796875 755.769531 305.175781 Z M 797.898438 435.832031 L 763.644531 435.832031 L 763.644531 312.066406 C 775.433594 321.992188 786.953125 330.023438 797.898438 336.523438 Z M 840.027344 435.832031 L 805.761719 435.832031 L 805.761719 341.109375 C 818.488281 348.011719 830.097656 352.835938 840.027344 356.199219 Z M 840.027344 435.832031 " fill-opacity="1" fill-rule="nonzero"/></g><g clip-path="url(#e6401f234e)"><path fill="#000000" d="M 0.699219 0 L 0.699219 810 L 810.699219 810 L 810.699219 0 L 0.699219 0 M 784.898438 784.199219 L 25.960938 784.199219 L 25.960938 25.261719 L 784.898438 25.261719 L 784.898438 784.199219 " fill-opacity="1" fill-rule="nonzero"/></g></svg>