<svg xmlns="http://www.w3.org/2000/svg" xmlns:xlink="http://www.w3.org/1999/xlink" width="1080" zoomAndPan="magnify" viewBox="0 0 810 809.999993" height="1080" preserveAspectRatio="xMidYMid meet" version="1.0"><defs><clipPath id="8be5611553"><path d="M 0 207.707031 L 810 207.707031 L 810 602.957031 L 0 602.957031 Z M 0 207.707031 " clip-rule="nonzero"/></clipPath></defs><rect x="-81" width="972" fill="#ffffff" y="-80.999999" height="971.999992" fill-opacity="1"/><rect x="-81" width="972" fill="#ffffff" y="-80.999999" height="971.999992" fill-opacity="1"/><rect x="-81" width="972" fill="#ff4500" y="-80.999999" height="971.999992" fill-opacity="1"/><g clip-path="url(#8be5611553)"><path fill="#ffffff" d="M 804.777344 357.082031 C 817.675781 360.847656 826.199219 361.71875 827.367188 361.8125 L 828.371094 349.125 C 827.398438 349.03125 729.183594 339.523438 664.964844 210.996094 L 663.199219 207.476562 L 622.386719 207.476562 L 621.238281 212.433594 C 619.976562 218.019531 587.988281 349.085938 404.777344 349.085938 C 221.546875 349.085938 189.570312 218.019531 188.285156 212.433594 L 187.160156 207.476562 L 146.347656 207.476562 L 144.578125 210.996094 C 80.351562 339.523438 -17.851562 349.03125 -18.835938 349.125 L -17.832031 361.8125 C -16.664062 361.71875 -8.140625 360.847656 4.757812 357.082031 L 4.757812 427.070312 L -18.824219 427.070312 L -18.824219 449.355469 L 153.460938 449.355469 L 153.460938 567.09375 L 142.066406 567.09375 L 142.066406 603.164062 L 192.960938 603.164062 L 192.960938 567.09375 L 180.5 567.09375 L 180.5 449.367188 L 629.046875 449.367188 L 629.046875 567.101562 L 616.574219 567.101562 L 616.574219 603.171875 L 667.46875 603.171875 L 667.46875 567.101562 L 656.082031 567.101562 L 656.082031 449.367188 L 828.359375 449.367188 L 828.359375 427.078125 L 804.777344 427.078125 Z M 42.929688 427.078125 L 11.902344 427.078125 L 11.902344 354.847656 C 20.890625 351.796875 31.421875 347.417969 42.929688 341.160156 Z M 81.105469 427.078125 L 50.078125 427.078125 L 50.078125 336.988281 C 59.996094 331.101562 70.421875 323.816406 81.105469 314.804688 Z M 119.269531 427.078125 L 88.242188 427.078125 L 88.242188 308.566406 C 98.59375 299.140625 109.019531 287.925781 119.269531 274.886719 Z M 153.460938 427.078125 L 126.425781 427.078125 L 126.425781 265.648438 C 135.777344 252.746094 144.878906 238.125 153.460938 221.527344 Z M 195.621094 427.078125 L 180.5 427.078125 L 180.5 229.226562 C 183.558594 237.078125 188.390625 247.664062 195.621094 259.449219 Z M 233.804688 427.078125 L 202.777344 427.078125 L 202.777344 270.324219 C 210.75 281.601562 220.96875 293.5 233.804688 304.851562 Z M 271.96875 427.078125 L 240.941406 427.078125 L 240.941406 310.882812 C 250.019531 318.1875 260.34375 325.152344 271.96875 331.484375 Z M 310.144531 427.078125 L 279.125 427.078125 L 279.125 335.230469 C 288.609375 339.949219 298.921875 344.222656 310.144531 347.894531 Z M 348.316406 427.078125 L 317.289062 427.078125 L 317.289062 350.078125 C 326.980469 352.933594 337.3125 355.355469 348.316406 357.226562 Z M 386.480469 427.078125 L 355.453125 427.078125 L 355.453125 358.355469 C 365.28125 359.785156 375.589844 360.808594 386.480469 361.355469 Z M 415.90625 427.078125 L 393.640625 427.078125 L 393.640625 361.605469 C 397.308594 361.71875 400.972656 361.832031 404.777344 361.832031 C 408.574219 361.832031 412.234375 361.707031 415.90625 361.605469 Z M 454.082031 427.078125 L 423.042969 427.078125 L 423.042969 361.355469 C 433.933594 360.808594 444.265625 359.785156 454.082031 358.355469 Z M 492.253906 427.078125 L 461.21875 427.078125 L 461.21875 357.238281 C 472.222656 355.355469 482.554688 352.945312 492.253906 350.089844 Z M 530.417969 427.078125 L 499.382812 427.078125 L 499.382812 347.882812 C 510.613281 344.222656 520.925781 339.9375 530.417969 335.21875 Z M 568.605469 427.078125 L 537.566406 427.078125 L 537.566406 331.484375 C 549.191406 325.152344 559.503906 318.1875 568.605469 310.882812 Z M 606.769531 427.078125 L 575.730469 427.078125 L 575.730469 304.839844 C 588.574219 293.492188 598.785156 281.59375 606.769531 270.3125 Z M 629.046875 427.078125 L 613.90625 427.078125 L 613.90625 259.460938 C 621.132812 247.664062 625.984375 237.089844 629.046875 229.238281 Z M 683.117188 427.078125 L 656.082031 427.078125 L 656.082031 221.527344 C 664.65625 238.125 673.757812 252.746094 683.117188 265.648438 Z M 721.292969 427.078125 L 690.242188 427.078125 L 690.242188 274.886719 C 700.515625 287.933594 710.929688 299.152344 721.292969 308.566406 Z M 759.46875 427.078125 L 728.429688 427.078125 L 728.429688 314.816406 C 739.113281 323.816406 749.546875 331.101562 759.46875 337 Z M 797.640625 427.078125 L 766.59375 427.078125 L 766.59375 341.160156 C 778.125 347.417969 788.644531 351.796875 797.640625 354.847656 Z M 797.640625 427.078125 " fill-opacity="1" fill-rule="nonzero"/></g><path fill="#000000" d="M -0.644531 0 L -0.644531 810 L 810.105469 810 L 810.105469 0 L -0.644531 0 M 784.300781 784.199219 L 24.621094 784.199219 L 24.621094 25.261719 L 784.300781 25.261719 L 784.300781 784.199219 " fill-opacity="1" fill-rule="nonzero"/></svg>